<svg width="500" height="500" viewBox="0 0 500 500" xmlns="http://www.w3.org/2000/svg">  <rect width="100%" height="100%" fill="white"/>  <polygon points="    330,250    423,350    290,320    250,450    210,320    76,350    170,250    76,149    210,180    249,50    290,180    423,149"    fill="#ff06b5" stroke="none"/>    <circle cx="423" cy="250" r="30" fill="#ff06b5"/>    <circle cx="76" cy="250" r="30" fill="#ff06b5"/>    <circle cx="160" cy="100" r="30" fill="#ff06b5"/>    <circle cx="160" cy="400" r="30" fill="#ff06b5"/>    <circle cx="340" cy="100" r="30" fill="#ff06b5"/>    <circle cx="340" cy="400" r="30" fill="#ff06b5"/>        <circle cx="330" cy="250" r="30" fill="white"/>    <circle cx="170" cy="250" r="30" fill="white"/>    <circle cx="290" cy="320" r="30" fill="white"/>    <circle cx="210" cy="320" r="30" fill="white"/>    <circle cx="210" cy="180" r="30" fill="white"/>    <circle cx="290" cy="180" r="30" fill="white"/>    <circle cx="250" cy="250" r="30" fill="white"/></svg>